<svg width="92" height="16" viewBox="0 0 92 16" fill="none" xmlns="http://www.w3.org/2000/svg">
<path d="M3.77665 15.8639H0L9.87197 0L13.6372 6.53891e-06L3.77665 15.8639Z" fill="#F55139"/>
<path d="M13.28 15.8639H5.69158L15.5636 0L23.1168 6.53891e-06L13.28 15.8639Z" fill="#F55139"/>
<path d="M29.7543 16L26.1385 0.143116H29.8659L33.0129 14.2104H30.6694L39.4632 0.143116H43.2129L33.3254 16H29.7543Z" fill="#1F1F1F"/>
<path d="M38.1466 16L48.235 0.143116H51.8284L55.6674 16H52.0516L49.0161 1.95533H50.4446L42.0078 16H38.1466ZM42.3203 12.6021L43.7934 9.81582H51.8507L52.2748 12.6021H42.3203Z" fill="#1F1F1F"/>
<path d="M70.4568 0.143116H74.0726L70.9478 16H67.3321L70.4568 0.143116ZM60.2568 16H56.6187L59.7434 0.143116H63.3815L60.2568 16ZM68.8944 9.49868H61.2835L61.8861 6.39526H69.4971L68.8944 9.49868Z" fill="#1F1F1F"/>
<path d="M73.9747 16L77.0995 0.143116H80.0903L86.8084 11.628L85.6255 11.5601L87.8574 0.143116H91.4286L88.3038 16H85.3354L78.5949 4.51509L79.8001 4.58304L77.5459 16H73.9747Z" fill="#1F1F1F"/>
</svg>
