<svg width="20" height="20" viewBox="0 0 20 20" fill="none" xmlns="http://www.w3.org/2000/svg">
<mask id="mask0_958_16090" style="mask-type:luminance" maskUnits="userSpaceOnUse" x="0" y="0" width="20" height="20">
<path fill-rule="evenodd" clip-rule="evenodd" d="M4.54667 0.00982666C4.10064 0.0256824 3.52579 0.0605774 3.26451 0.113314C2.86567 0.193855 2.48902 0.315969 2.17579 0.475615C1.80777 0.66317 1.47793 0.902466 1.19313 1.18683C0.90767 1.47174 0.667414 1.80189 0.479107 2.17045C0.319907 2.482 0.197861 2.85636 0.116977 3.25294C0.0631801 3.51686 0.0276006 4.09599 0.0114717 4.5449C0.00493113 4.72838 0.00157522 4.96583 0.00157522 5.07534L0 14.9231C0 15.0322 0.00332166 15.2697 0.00982801 15.4534C0.025683 15.8994 0.0605775 16.4742 0.113347 16.7355C0.193855 17.1343 0.316003 17.511 0.475614 17.8242C0.663202 18.1923 0.902465 18.522 1.18683 18.8069C1.47174 19.0923 1.80192 19.3326 2.17045 19.5209C2.48203 19.6801 2.85639 19.8021 3.25293 19.883C3.51685 19.9368 4.09602 19.9724 4.54492 19.9885C4.72833 19.9951 4.96582 19.9984 5.07533 19.9984L14.9231 20C15.0322 20 15.2697 19.9967 15.4533 19.9902C15.8993 19.9743 16.4742 19.9394 16.7355 19.8867C17.1343 19.8061 17.511 19.684 17.8242 19.5244C18.1922 19.3368 18.522 19.0975 18.8068 18.8132C19.0923 18.5282 19.3325 18.1981 19.5209 17.8295C19.68 17.518 19.8021 17.1436 19.883 16.7471C19.9368 16.4831 19.9724 15.9039 19.9885 15.4551C19.9951 15.2716 19.9984 15.0342 19.9984 14.9247L20 5.07691C20 4.96781 19.9967 4.73029 19.9901 4.54664C19.9742 4.10065 19.9394 3.52579 19.8866 3.26451C19.8061 2.86567 19.684 2.48903 19.5244 2.17579C19.3368 1.80774 19.0975 1.47794 18.8132 1.1931C18.5282 0.907705 18.198 0.667416 17.8295 0.479109C17.5179 0.319908 17.1436 0.197828 16.747 0.116978C16.4831 0.0631809 15.9039 0.0276012 15.4551 0.011507C15.2716 0.00489807 15.0341 0.00157547 14.9246 0.00157547L5.0769 0C4.9678 0 4.73029 0.00328636 4.54667 0.00982666Z" fill="white"/>
</mask>
<g mask="url(#mask0_958_16090)">
<path d="M4.54667 0.00982666C4.10064 0.0256824 3.52579 0.0605774 3.26451 0.113314C2.86567 0.193855 2.48902 0.315969 2.17579 0.475615C1.80777 0.66317 1.47793 0.902466 1.19313 1.18683C0.90767 1.47174 0.667414 1.80189 0.479107 2.17045C0.319907 2.482 0.197861 2.85636 0.116977 3.25294C0.0631801 3.51686 0.0276006 4.09599 0.0114717 4.5449C0.00493113 4.72838 0.00157522 4.96583 0.00157522 5.07534L0 14.9231C0 15.0322 0.00332166 15.2697 0.00982801 15.4534C0.025683 15.8994 0.0605775 16.4742 0.113347 16.7355C0.193855 17.1343 0.316003 17.511 0.475614 17.8242C0.663202 18.1923 0.902465 18.522 1.18683 18.8069C1.47174 19.0923 1.80192 19.3326 2.17045 19.5209C2.48203 19.6801 2.85639 19.8021 3.25293 19.883C3.51685 19.9368 4.09602 19.9724 4.54492 19.9885C4.72833 19.9951 4.96582 19.9984 5.07533 19.9984L14.9231 20C15.0322 20 15.2697 19.9967 15.4533 19.9902C15.8993 19.9743 16.4742 19.9394 16.7355 19.8867C17.1343 19.8061 17.511 19.684 17.8242 19.5244C18.1922 19.3368 18.522 19.0975 18.8068 18.8132C19.0923 18.5282 19.3325 18.1981 19.5209 17.8295C19.68 17.518 19.8021 17.1436 19.883 16.7471C19.9368 16.4831 19.9724 15.9039 19.9885 15.4551C19.9951 15.2716 19.9984 15.0342 19.9984 14.9247L20 5.07691C20 4.96781 19.9967 4.73029 19.9901 4.54664C19.9742 4.10065 19.9394 3.52579 19.8866 3.26451C19.8061 2.86567 19.684 2.48903 19.5244 2.17579C19.3368 1.80774 19.0975 1.47794 18.8132 1.1931C18.5282 0.907705 18.198 0.667416 17.8295 0.479109C17.5179 0.319908 17.1436 0.197828 16.747 0.116978C16.4831 0.0631809 15.9039 0.0276012 15.4551 0.011507C15.2716 0.00489807 15.0341 0.00157547 14.9246 0.00157547L5.0769 0C4.9678 0 4.73029 0.00328636 4.54667 0.00982666Z" fill="url(#paint0_linear_958_16090)"/>
<path fill-rule="evenodd" clip-rule="evenodd" d="M13.4671 11.3164C13.289 11.2272 12.4132 10.7964 12.2499 10.737C12.0866 10.6776 11.9679 10.6479 11.8491 10.8261C11.7304 11.0044 11.389 11.4055 11.2851 11.5244C11.1812 11.6432 11.0773 11.6581 10.8992 11.5689C10.721 11.4798 10.1471 11.2917 9.46666 10.685C8.93711 10.2129 8.5796 9.62967 8.47567 9.4514C8.37178 9.27313 8.46461 9.17676 8.55382 9.08797C8.63391 9.00821 8.73192 8.88 8.82099 8.77601C8.91006 8.67201 8.93975 8.59773 8.99913 8.4789C9.05851 8.36004 9.02882 8.25605 8.98426 8.16691C8.93975 8.07777 8.58351 7.20126 8.43506 6.84471C8.29048 6.49748 8.14361 6.54446 8.03427 6.53902C7.93048 6.53385 7.81162 6.53275 7.69286 6.53275C7.5741 6.53275 7.38113 6.57734 7.21783 6.75558C7.05455 6.93385 6.59438 7.36471 6.59438 8.24118C6.59438 9.11769 7.23269 9.96448 7.32176 10.0833C7.41082 10.2022 8.57786 12.0009 10.3648 12.7722C10.7898 12.9557 11.1216 13.0653 11.3803 13.1474C11.807 13.2829 12.1954 13.2638 12.5023 13.2179C12.8445 13.1668 13.5562 12.7871 13.7047 12.3711C13.8531 11.9552 13.8531 11.5986 13.8085 11.5244C13.764 11.4501 13.6453 11.4055 13.4671 11.3164ZM10.2168 15.7528H10.2144C9.15115 15.7524 8.10829 15.4669 7.19853 14.9271L6.98214 14.7987L4.73947 15.3869L5.33809 13.201L5.19718 12.9769C4.60404 12.0337 4.29077 10.9436 4.29122 9.82437C4.29252 6.55832 6.95071 3.90116 10.2192 3.90116C11.8019 3.90177 13.2896 4.51875 14.4084 5.63839C15.5271 6.75806 16.1429 8.24638 16.1423 9.82917C16.141 13.0955 13.4828 15.7528 10.2168 15.7528ZM15.2599 4.78761C13.9139 3.44049 12.1239 2.69825 10.2168 2.6975C6.28734 2.6975 3.0892 5.89441 3.08762 9.82395C3.08711 11.0801 3.41537 12.3062 4.03923 13.3869L3.02783 17.0801L6.80713 16.0891C7.84842 16.6568 9.0208 16.956 10.214 16.9565H10.2169H10.2169C14.1461 16.9565 17.3445 13.7592 17.3461 9.82963C17.3468 7.92532 16.606 6.1347 15.2599 4.78761Z" fill="white"/>
</g>
<defs>
<linearGradient id="paint0_linear_958_16090" x1="-2.14577e-05" y1="20" x2="-2.14577e-05" y2="-2.29793e-05" gradientUnits="userSpaceOnUse">
<stop stop-color="#25CF43"/>
<stop offset="1" stop-color="#61FD7D"/>
</linearGradient>
</defs>
</svg>
